<?xml version="1.0" encoding="UTF-8"?>
<svg version="1.1" xmlns="http://www.w3.org/2000/svg" width="500" height="500">
<path d="M0 0 C3.06524426 1.59304809 5.45763013 3.68101827 8 6 C8.89332031 6.71929687 8.89332031 6.71929687 9.8046875 7.453125 C12.92054186 9.97350497 15.60472935 12.62435897 18.1875 15.6875 C22.49380289 20.74189114 27.42290385 25.07867108 32.35009766 29.50732422 C35.19591548 32.08195135 38.0008629 34.70067674 40.8125 37.3125 C44.2456982 40.50086804 47.7038472 43.63476552 51.3125 46.625 C52.199375 47.40875 53.08625 48.1925 54 49 C54 49.66 54 50.32 54 51 C54.57492187 51.226875 55.14984375 51.45375 55.7421875 51.6875 C58.61427344 53.35708629 60.11217598 55.3672568 62.125 58 C64.91229157 61.63200604 64.91229157 61.63200604 68 65 C71.38784391 70.20760007 74.43707975 75.60329114 77.125 81.203125 C77.91866024 82.83296299 78.7987511 84.42000195 79.6875 86 C81.00445053 89.01017265 81.4539278 91.63043931 81.75317383 94.88842773 C82.00379542 97.03246941 82.47267285 99.00894472 83.01171875 101.09765625 C84.19312166 106.29849586 84.29595149 111.3099448 84.25 116.625 C84.25773438 117.52734375 84.26546875 118.4296875 84.2734375 119.359375 C84.25813901 124.60675626 83.70930654 128.98603415 82 134 C81.65839844 135.10601562 81.31679688 136.21203125 80.96484375 137.3515625 C80.27822633 139.53933969 79.5907218 141.72683865 78.90234375 143.9140625 C78.11594747 146.60346969 77.49677521 149.2446901 77 152 C76.34 152 75.68 152 75 152 C74.62875 152.99 74.62875 152.99 74.25 154 C69.5 165.4 69.5 165.4 65 169 C64.34 169 63.68 169 63 169 C62.773125 169.556875 62.54625 170.11375 62.3125 170.6875 C59.50208484 175.63918385 54.79535717 179.09034703 50.453125 182.66796875 C48.87220817 183.9579691 48.87220817 183.9579691 48 186 C46.02111039 186.72693904 44.02045442 187.39816251 42 188 C42 188.66 42 189.32 42 190 C41.36191406 190.19335938 40.72382813 190.38671875 40.06640625 190.5859375 C39.24011719 190.84632813 38.41382813 191.10671875 37.5625 191.375 C36.73878906 191.63023437 35.91507813 191.88546875 35.06640625 192.1484375 C32.82201984 192.80882227 32.82201984 192.80882227 32 195 C24.17570144 198.8876473 15.3287141 200.38734326 6.84375 202.16796875 C3.10670956 202.90422856 3.10670956 202.90422856 0 204 C-1.63972682 204.0727919 -3.28237653 204.08691327 -4.92358398 204.06591797 C-5.92570419 204.05615936 -6.9278244 204.04640076 -7.96031189 204.03634644 C-9.58677391 204.01448776 -9.58677391 204.01448776 -11.24609375 203.9921875 C-13.55142775 203.97465329 -15.8567666 203.95774677 -18.16210938 203.94140625 C-21.78911839 203.91060051 -25.41588311 203.87527813 -29.04272461 203.82861328 C-32.54804369 203.78588013 -36.05308314 203.76271159 -39.55859375 203.7421875 C-40.62468369 203.72356659 -41.69077362 203.70494568 -42.78916931 203.6857605 C-50.26808445 203.66069057 -56.83142074 204.92902148 -64 207 C-64.7522435 207.15564423 -65.504487 207.31128845 -66.27952576 207.47164917 C-66.84728226 207.64600494 -67.41503876 207.82036072 -68 208 C-68.33 208.66 -68.66 209.32 -69 210 C-69.78375 210.433125 -70.5675 210.86625 -71.375 211.3125 C-74.34869119 213.22415862 -75.34549041 214.92733933 -77 218 C-77.99 218.99 -77.99 218.99 -79 220 C-79.495 220.845625 -79.99 221.69125 -80.5 222.5625 C-82 225 -82 225 -84 226 C-84.66 226.99 -85.32 227.98 -86 229 C-89.48192014 229.46425602 -91.54500718 229.20681492 -94.75 227.75 C-97.63705429 225.50451333 -98.73590066 223.51644136 -99.36328125 219.9140625 C-99.16229518 210.85422894 -93.02155711 204.2698152 -87 198 C-68.77992092 182.32163533 -46.40175689 183.670828 -23.77978516 183.54370117 C-0.47564402 183.42616501 -0.47564402 183.42616501 21.625 176.5625 C22.27855469 176.27568359 22.93210937 175.98886719 23.60546875 175.69335938 C27.54124929 173.90834375 30.71475517 171.78748046 34 169 C34.804375 168.566875 35.60875 168.13375 36.4375 167.6875 C39.40550853 165.7329578 41.27928551 163.50546048 43.515625 160.7734375 C45.52960517 158.36726119 47.78251988 156.21748012 50 154 C50.66 153.01 51.32 152.02 52 151 C52.66 151 53.32 151 54 151 C54.26683594 150.16082031 54.53367187 149.32164062 54.80859375 148.45703125 C55.61650366 146.11276807 56.50826771 143.79606615 57.47265625 141.51171875 C64.23086833 125.49792238 65.12433087 108.42829988 59 92 C58.24127841 89.58554607 57.48949757 87.16921242 56.74609375 84.75 C56.13743592 82.79897553 56.13743592 82.79897553 54 82 C52.9296875 80.44140625 52.9296875 80.44140625 51.875 78.5625 C51.34519531 77.63630859 51.34519531 77.63630859 50.8046875 76.69140625 C50 75 50 75 50 73 C49.01 72.67 48.02 72.34 47 72 C45.421875 70.36328125 45.421875 70.36328125 43.75 68.3125 C40.8504642 64.86891484 37.81862551 62.00674271 34.28515625 59.2265625 C33.86105469 58.82179687 33.43695313 58.41703125 33 58 C33 57.34 33 56.68 33 56 C32.14728516 55.62294922 32.14728516 55.62294922 31.27734375 55.23828125 C28.68634868 53.82945546 26.74666303 52.16725262 24.5625 50.1875 C23.82128906 49.52105469 23.08007812 48.85460937 22.31640625 48.16796875 C19.81970185 45.83125552 17.40756153 43.42858827 15 41 C13.80259319 39.80157369 12.60463512 38.60369803 11.40625 37.40625 C3.203125 29.203125 3.203125 29.203125 -5 21 C-6.48273699 22.12029017 -7.96108886 23.24638618 -9.4375 24.375 C-10.26121094 25.00148437 -11.08492188 25.62796875 -11.93359375 26.2734375 C-14.08528092 27.83753904 -14.08528092 27.83753904 -15 30 C-15.5775 30.268125 -16.155 30.53625 -16.75 30.8125 C-19.74700245 32.39425129 -21.62817466 34.57426954 -24 37 C-27.49704164 40.17008246 -31.05600723 43.24909666 -34.75 46.1875 C-37.01513684 47.94598539 -37.01513684 47.94598539 -38.9375 49.9375 C-40.9746548 51.9746548 -43.12303744 53.80834248 -45.34765625 55.63671875 C-47.16433392 57.13558519 -48.95944945 58.65752853 -50.75 60.1875 C-51.60851562 60.92033203 -51.60851562 60.92033203 -52.484375 61.66796875 C-53.69714991 62.73383536 -54.85831383 63.85831383 -56 65 C-57.27772414 66.01775429 -58.57113835 67.01595347 -59.875 68 C-60.55304688 68.515625 -61.23109375 69.03125 -61.9296875 69.5625 C-63.89218873 70.92514236 -65.83795822 71.99169352 -68 73 C-68 73.66 -68 74.32 -68 75 C-67.28714844 74.98839844 -66.57429688 74.97679687 -65.83984375 74.96484375 C-51.38161712 74.82862896 -51.38161712 74.82862896 -47.125 78.4375 C-43.78719923 82.46249504 -43.8610416 85.25294164 -43.88647461 90.29541016 C-43.88632858 91.04672714 -43.88618256 91.79804413 -43.8860321 92.5721283 C-43.88673004 95.0611355 -43.89451686 97.55006833 -43.90234375 100.0390625 C-43.90420835 101.76256265 -43.90563206 103.48606334 -43.90663147 105.20956421 C-43.91045331 109.75025897 -43.92028078 114.29092185 -43.93133545 118.831604 C-43.94155671 123.46325245 -43.94613063 128.09490603 -43.95117188 132.7265625 C-43.96190333 141.81772236 -43.97897578 150.90885853 -44 160 C-39.67783559 159.89651152 -35.35660163 159.77050946 -31.03515625 159.640625 C-29.8191272 159.61178223 -28.60309814 159.58293945 -27.35021973 159.55322266 C-18.03078863 159.25681713 -10.53786292 157.903971 -2 154 C-1.08734375 153.61714844 -0.1746875 153.23429688 0.765625 152.83984375 C7.18534161 149.93521737 12.92946661 145.89639386 18 141 C18.33 140.01 18.66 139.02 19 138 C19.8971875 137.195625 19.8971875 137.195625 20.8125 136.375 C26.45503696 130.24881702 27.69342797 123.46933473 27.47265625 115.30078125 C26.8260073 110.78492701 25.20886141 107.15736762 23.09375 103.14453125 C22 101 22 101 22 99 C21.34 99 20.68 99 20 99 C17.375 96.625 17.375 96.625 15 94 C15 93.34 15 92.68 15 92 C14.443125 91.731875 13.88625 91.46375 13.3125 91.1875 C11 90 11 90 8.76171875 88.55859375 C5.72663463 86.84572449 2.83825154 85.86555595 -0.5 84.875 C-1.6034375 84.54242188 -2.706875 84.20984375 -3.84375 83.8671875 C-6.55694814 83.12172959 -9.24009973 82.53430639 -12 82 C-11.98889694 82.74058151 -11.97779388 83.48116302 -11.96635437 84.2441864 C-11.86605742 91.23265679 -11.78998694 98.22101923 -11.74093914 105.21002483 C-11.71487456 108.8030086 -11.67953671 112.39539636 -11.62280273 115.98803711 C-11.56836665 119.45698186 -11.53855584 122.92535439 -11.52561378 126.39469337 C-11.51191551 128.35851051 -11.47289982 130.32209825 -11.43351746 132.28556824 C-11.43196897 137.2094296 -11.45771069 140.90238596 -13.65551758 145.35083008 C-19.18044666 148.07518193 -24.95660067 147.36800131 -31 147 C-31.06953559 137.04684551 -31.12282937 127.09374889 -31.15543652 117.14040089 C-31.17108697 112.51856209 -31.19231393 107.89688958 -31.22631836 103.27514648 C-31.25893392 98.81421463 -31.27685768 94.35344264 -31.28463173 89.89240074 C-31.29017129 88.19115368 -31.30098876 86.48991528 -31.31719017 84.78873634 C-31.33899391 82.40429456 -31.34196574 80.0205119 -31.34057617 77.63598633 C-31.351362 76.93395584 -31.36214783 76.23192535 -31.3732605 75.50862122 C-31.3459473 71.17212616 -30.67258205 68.43999786 -28 65 C-22.67217802 62.22752838 -16.73687412 62.70378286 -10.875 62.75 C-9.39193359 62.73839844 -9.39193359 62.73839844 -7.87890625 62.7265625 C-6.92628906 62.72914063 -5.97367187 62.73171875 -4.9921875 62.734375 C-4.12964355 62.73663086 -3.26709961 62.73888672 -2.37841797 62.74121094 C0.20209009 63.02198886 1.75249993 63.73851855 4 65 C7.10422915 66.22627562 10.21236591 67.43727521 13.3359375 68.61328125 C17.62526267 70.28231302 21.20904938 72.34242637 25 75 C25.680625 75.28875 26.36125 75.5775 27.0625 75.875 C29.52742501 77.30624678 31.02695136 79.27609438 32.77734375 81.4921875 C34.06931312 83.14668854 34.06931312 83.14668854 36.0625 85 C38.43674821 87.45083686 40.15113246 90.13723736 42 93 C42.804375 93.9590625 42.804375 93.9590625 43.625 94.9375 C50.61812577 105.42718865 48.6362842 122.13693953 47 134 C46.34 134 45.68 134 45 134 C45.33 134.99 45.66 135.98 46 137 C44.625 140.0625 44.625 140.0625 43 143 C42.67 143.66 42.34 144.32 42 145 C41.34 145 40.68 145 40 145 C40 145.66 40 146.32 40 147 C39.34 147 38.68 147 38 147 C37.91234375 147.75152344 37.8246875 148.50304687 37.734375 149.27734375 C36.85888504 152.52317622 35.83154087 153.4710637 33.25 155.5625 C32.53070313 156.15546875 31.81140625 156.7484375 31.0703125 157.359375 C30.04550781 158.17148437 30.04550781 158.17148437 29 159 C28.05125 159.763125 27.1025 160.52625 26.125 161.3125 C25.42375 161.869375 24.7225 162.42625 24 163 C23.34 163.66 22.68 164.32 22 165 C20.989375 165.33 19.97875 165.66 18.9375 166 C15.87849194 166.65752556 15.87849194 166.65752556 15 169 C14.01 169.33 13.02 169.66 12 170 C11.34 170.66 10.68 171.32 10 172 C7.50579561 172.91816469 5.0320378 173.76502641 2.5 174.5625 C-2.34470702 176.03971749 -2.34470702 176.03971749 -7 178 C-15.01681463 179.17189317 -23.10497795 179.40042329 -31.19311523 179.66748047 C-32.77475828 179.722565 -34.35616946 179.78475925 -35.93725586 179.85400391 C-38.25084967 179.95510534 -40.56433147 180.03451579 -42.87890625 180.109375 C-43.922994 180.16070587 -43.922994 180.16070587 -44.98817444 180.21307373 C-50.66683232 180.35709504 -56.31986095 179.37884689 -60.66749573 175.5199585 C-63.61304143 172.1600389 -63.13435126 168.75836109 -63.11352539 164.52099609 C-63.11367142 163.75017197 -63.11381744 162.97934784 -63.1139679 162.18516541 C-63.11326989 159.63122771 -63.10548275 157.07736249 -63.09765625 154.5234375 C-63.09579167 152.75509684 -63.09436796 150.98675567 -63.09336853 149.21841431 C-63.0895465 144.55935241 -63.07971888 139.90032158 -63.06866455 135.24127197 C-63.05844369 130.48897726 -63.05386946 125.73667753 -63.04882812 120.984375 C-63.03809634 111.65623633 -63.02102367 102.32812075 -63 93 C-63.84183838 93.02094727 -64.68367676 93.04189453 -65.55102539 93.06347656 C-68.70251352 93.13202962 -71.85361906 93.18198263 -75.00561523 93.21972656 C-76.36446713 93.23972628 -77.72323424 93.26693576 -79.08178711 93.30175781 C-93.10073247 93.65184532 -93.10073247 93.65184532 -99 89 C-101.10265388 86.45929323 -100.99848345 85.07886066 -101.0625 81.75 C-97.77707819 70.15439361 -83.69518868 61.51223186 -74.73828125 54.265625 C-71.1387286 51.28739313 -67.68901134 48.15916212 -64.23046875 45.01953125 C-56.47775629 38 -56.47775629 38 -54 38 C-53.67 37.01 -53.34 36.02 -53 35 C-51.4089357 33.56197818 -49.7513985 32.19674665 -48.0625 30.875 C-43.3408804 27.10749006 -38.81572382 23.20015948 -34.3515625 19.1328125 C-32.15526793 17.14082441 -29.92975315 15.18992688 -27.6875 13.25 C-25.40601836 11.27608228 -23.34354975 9.3137111 -21.25 7.125 C-19.05003451 5.04725481 -17.95907024 4.32878558 -15 4 C-15 3.34 -15 2.68 -15 2 C-10.23184216 -0.54301751 -5.2607113 -0.91700472 0 0 Z " fill="#02334F" transform="translate(250,140)"/>
<path d="M0 0 C4.48100701 1.40831649 6.82626295 3.58823267 10 7 C11.175625 8.175625 11.175625 8.175625 12.375 9.375 C13.24125 10.24125 14.1075 11.1075 15 12 C15.92619141 12.89138672 15.92619141 12.89138672 16.87109375 13.80078125 C17.51175781 14.42339844 18.15242188 15.04601562 18.8125 15.6875 C19.41707031 16.26886719 20.02164063 16.85023438 20.64453125 17.44921875 C22 19 22 19 22 21 C22.7425 21.226875 23.485 21.45375 24.25 21.6875 C27.54618078 23.26067719 28.81688828 25.1126587 31 28 C31.7425 28.556875 32.485 29.11375 33.25 29.6875 C33.8275 30.120625 34.405 30.55375 35 31 C35 31.66 35 32.32 35 33 C35.8353125 33.37125 35.8353125 33.37125 36.6875 33.75 C39.42410913 35.22924818 41.67650869 36.93467439 44 39 C44 39.66 44 40.32 44 41 C44.66 41 45.32 41 46 41 C46 41.66 46 42.32 46 43 C46.66 43 47.32 43 48 43 C49.71932992 45.13268799 51.31063547 47.25741324 52.875 49.5 C53.3289917 50.14855957 53.7829834 50.79711914 54.25073242 51.46533203 C66.55809753 69.27163769 68.54644754 86.05381621 64.8515625 106.99609375 C63.95087417 111.59210469 62.5679017 115.15675203 59.9375 119.0625 C57.92822036 121.71961626 57.92822036 121.71961626 57.5625 124.0625 C56.84350218 126.53904805 55.39010265 127.70994128 53.53515625 129.4296875 C50.91052658 132.11442319 48.7725486 135.18720112 46.55078125 138.20703125 C46.03902344 138.79871094 45.52726563 139.39039063 45 140 C44.34 140 43.68 140 43 140 C42.67 140.99 42.34 141.98 42 143 C40.35178756 144.03013277 38.68496298 145.03114628 37 146 C36.67 146.66 36.34 147.32 36 148 C34.35935876 148.71778054 32.71417259 149.42648728 31.05078125 150.08984375 C28.9496501 151.02234577 27.13165166 152.15175665 25.1875 153.375 C11.22255177 160.96916193 -2.63740177 161.37463832 -18.16064453 161.11889648 C-27.62130681 160.96581199 -36.92966179 161.17428266 -46.375 161.875 C-47.48987793 161.95387451 -48.60475586 162.03274902 -49.75341797 162.11401367 C-64.11376982 163.16519611 -64.11376982 163.16519611 -77 169 C-78.0725 169.70125 -79.145 170.4025 -80.25 171.125 C-81.1575 171.74375 -82.065 172.3625 -83 173 C-84.485 173.99 -84.485 173.99 -86 175 C-86 172 -86 172 -84.70703125 170.5703125 C-66.95964798 157.03107165 -44.90275645 158.66240419 -23.77978516 158.54370117 C-0.47564402 158.42616501 -0.47564402 158.42616501 21.625 151.5625 C22.27855469 151.27568359 22.93210937 150.98886719 23.60546875 150.69335938 C27.54124929 148.90834375 30.71475517 146.78748046 34 144 C34.804375 143.566875 35.60875 143.13375 36.4375 142.6875 C39.40550853 140.7329578 41.27928551 138.50546048 43.515625 135.7734375 C45.52960517 133.36726119 47.78251988 131.21748012 50 129 C50.66 128.01 51.32 127.02 52 126 C52.66 126 53.32 126 54 126 C54.26683594 125.16082031 54.53367187 124.32164062 54.80859375 123.45703125 C55.61650366 121.11276807 56.50826771 118.79606615 57.47265625 116.51171875 C64.23086833 100.49792238 65.12433087 83.42829988 59 67 C58.24127841 64.58554607 57.48949757 62.16921242 56.74609375 59.75 C56.13743592 57.79897553 56.13743592 57.79897553 54 57 C52.9296875 55.44140625 52.9296875 55.44140625 51.875 53.5625 C51.34519531 52.63630859 51.34519531 52.63630859 50.8046875 51.69140625 C50 50 50 50 50 48 C49.01 47.67 48.02 47.34 47 47 C45.421875 45.36328125 45.421875 45.36328125 43.75 43.3125 C40.8504642 39.86891484 37.81862551 37.00674271 34.28515625 34.2265625 C33.86105469 33.82179687 33.43695313 33.41703125 33 33 C33 32.34 33 31.68 33 31 C32.43152344 30.74863281 31.86304688 30.49726563 31.27734375 30.23828125 C28.68634868 28.82945546 26.74666303 27.16725262 24.5625 25.1875 C23.82128906 24.52105469 23.08007812 23.85460937 22.31640625 23.16796875 C19.81979737 20.83134493 17.40928848 18.42669664 15 16 C13.74423886 14.75445245 12.48766508 13.50972391 11.23046875 12.265625 C9.88276804 10.9271281 8.53511264 9.58858557 7.1875 8.25 C6.49462891 7.56550781 5.80175781 6.88101563 5.08789062 6.17578125 C4.43369141 5.52480469 3.77949219 4.87382812 3.10546875 4.203125 C2.50887451 3.61176758 1.91228027 3.02041016 1.29760742 2.41113281 C0 1 0 1 0 0 Z " fill="#072131" transform="translate(250,165)"/>
<path d="M0 0 C0.66 0 1.32 0 2 0 C1.01595171 2.95214486 0.01178391 4.66633067 -2 7 C-2.66 7 -3.32 7 -4 7 C-4.3403125 7.8353125 -4.3403125 7.8353125 -4.6875 8.6875 C-7.49791516 13.63918385 -12.20464283 17.09034703 -16.546875 20.66796875 C-18.12779183 21.9579691 -18.12779183 21.9579691 -19 24 C-20.97888961 24.72693904 -22.97954558 25.39816251 -25 26 C-25 26.66 -25 27.32 -25 28 C-25.63808594 28.19335938 -26.27617187 28.38671875 -26.93359375 28.5859375 C-27.75988281 28.84632813 -28.58617187 29.10671875 -29.4375 29.375 C-30.26121094 29.63023437 -31.08492187 29.88546875 -31.93359375 30.1484375 C-34.17798016 30.80882227 -34.17798016 30.80882227 -35 33 C-42.82429856 36.8876473 -51.6712859 38.38734326 -60.15625 40.16796875 C-63.89329044 40.90422856 -63.89329044 40.90422856 -67 42 C-68.63972682 42.0727919 -70.28237653 42.08691327 -71.92358398 42.06591797 C-73.4267643 42.05128006 -73.4267643 42.05128006 -74.96031189 42.03634644 C-76.58677391 42.01448776 -76.58677391 42.01448776 -78.24609375 41.9921875 C-80.55142775 41.97465329 -82.8567666 41.95774677 -85.16210938 41.94140625 C-88.78911839 41.91060051 -92.41588311 41.87527813 -96.04272461 41.82861328 C-99.54804369 41.78588013 -103.05308314 41.76271159 -106.55859375 41.7421875 C-107.62468369 41.72356659 -108.69077362 41.70494568 -109.78916931 41.6857605 C-117.26808445 41.66069057 -123.83142074 42.92902148 -131 45 C-131.7522435 45.15564423 -132.504487 45.31128845 -133.27952576 45.47164917 C-133.84728226 45.64600494 -134.41503876 45.82036072 -135 46 C-135.33 46.66 -135.66 47.32 -136 48 C-136.78375 48.433125 -137.5675 48.86625 -138.375 49.3125 C-141.34869119 51.22415862 -142.34549041 52.92733933 -144 56 C-144.66 56.66 -145.32 57.32 -146 58 C-146.495 58.845625 -146.99 59.69125 -147.5 60.5625 C-149 63 -149 63 -151 64 C-151.66 64.99 -152.32 65.98 -153 67 C-156.48192014 67.46425602 -158.54500718 67.20681492 -161.75 65.75 C-164.6501831 63.49430203 -165.76568681 61.5146674 -166.328125 57.87890625 C-166.02828951 48.98878384 -160.55844949 43.4360994 -155 37 C-154.67 37.99 -154.34 38.98 -154 40 C-155.36328125 42.26953125 -155.36328125 42.26953125 -157.3125 44.8125 C-161.50608212 50.56823323 -163.34332032 54.7902732 -163 62 C-162.34 62 -161.68 62 -161 62 C-161 62.66 -161 63.32 -161 64 C-157.7778091 63.77802685 -154.97252442 63.29197957 -152 62 C-150.07175927 59.7833472 -148.69750352 57.56999913 -147.2890625 54.99609375 C-146 53 -146 53 -143 52 C-142.32557349 50.6705749 -141.65979012 49.3367495 -141 48 C-131.46097397 39.07217015 -118.13624475 38.56176876 -105.75390625 38.62890625 C-103.26236839 38.61152816 -100.77083196 38.59394374 -98.27929688 38.57617188 C-94.41786055 38.56611669 -90.55651723 38.56250264 -86.69506836 38.56420898 C-68.39931262 38.91746387 -68.39931262 38.91746387 -50.74194336 34.85522461 C-47.40565013 33.81461957 -44.47366526 33.86443839 -41 34 C-41 33.34 -41 32.68 -41 32 C-38.39704724 30.68504458 -35.79271967 29.37295014 -33.1875 28.0625 C-32.44951172 27.68931641 -31.71152344 27.31613281 -30.95117188 26.93164062 C-30.23896484 26.57392578 -29.52675781 26.21621094 -28.79296875 25.84765625 C-28.1383667 25.51773682 -27.48376465 25.18781738 -26.80932617 24.84790039 C-25 24 -25 24 -22 23 C-22 22.34 -22 21.68 -22 21 C-19.525 20.01 -19.525 20.01 -17 19 C-17 18.34 -17 17.68 -17 17 C-14.69064913 14.37211797 -13.36016893 13.12005631 -10 12 C-9.67 11.34 -9.34 10.68 -9 10 C-8.34 10 -7.68 10 -7 10 C-7 9.34 -7 8.68 -7 8 C-6.34 8 -5.68 8 -5 8 C-4.731875 7.4225 -4.46375 6.845 -4.1875 6.25 C-2.97070811 3.94449957 -1.69666121 1.97943808 0 0 Z " fill="#061F2F" transform="translate(317,302)"/>
<path d="M0 0 C0.98871094 -0.00773438 1.97742188 -0.01546875 2.99609375 -0.0234375 C3.94871094 -0.02085937 4.90132812 -0.01828125 5.8828125 -0.015625 C7.17662842 -0.01224121 7.17662842 -0.01224121 8.49658203 -0.00878906 C11.06156701 0.27029984 12.64876872 0.983238 14.875 2.25 C16.28427253 2.81062301 17.70101609 3.35287257 19.125 3.875 C20.3625 4.32875 21.6 4.7825 22.875 5.25 C22.215 5.91 21.555 6.57 20.875 7.25 C18.27204844 6.72212871 15.79944744 6.09635093 13.25 5.375 C4.58822277 3.13994218 -6.74498426 0.40004572 -15.015625 4.78125 C-20.34391338 11.01732084 -18.25222517 22.59482436 -18.22265625 30.46875 C-18.22078817 31.93705192 -18.21936611 33.40535446 -18.21836853 34.87365723 C-18.21457409 38.71392578 -18.20477049 42.55415574 -18.19366455 46.39440918 C-18.18338392 50.32282998 -18.17885674 54.25125709 -18.17382812 58.1796875 C-18.16314508 65.86980915 -18.14610614 73.55989914 -18.125 81.25 C-16.18715735 81.10879286 -14.24973045 80.96187127 -12.3125 80.8125 C-11.23355469 80.73128906 -10.15460938 80.65007812 -9.04296875 80.56640625 C-6.06510095 80.34787539 -6.06510095 80.34787539 -3.125 79.25 C-2.795 59.78 -2.465 40.31 -2.125 20.25 C-1.795 20.25 -1.465 20.25 -1.125 20.25 C-1.00900453 27.85609388 -0.92023363 35.46209574 -0.86593914 43.06887341 C-0.83987612 46.60132845 -0.80454134 50.13317713 -0.74780273 53.6652832 C-0.68293936 57.72873661 -0.65879268 61.79155598 -0.63671875 65.85546875 C-0.61091232 67.1202153 -0.5851059 68.38496185 -0.55851746 69.68803406 C-0.5569582 74.56348859 -0.59703854 78.18574618 -2.78051758 82.5871582 C-8.30142773 85.33209718 -14.07750238 84.61825087 -20.125 84.25 C-20.19453559 74.29684551 -20.24782937 64.34374889 -20.28043652 54.39040089 C-20.29608697 49.76856209 -20.31731393 45.14688958 -20.35131836 40.52514648 C-20.38393392 36.06421463 -20.40185768 31.60344264 -20.40963173 27.14240074 C-20.41517129 25.44115368 -20.42598876 23.73991528 -20.44219017 22.03873634 C-20.46399391 19.65429456 -20.46696574 17.2705119 -20.46557617 14.88598633 C-20.476362 14.18395584 -20.48714783 13.48192535 -20.4982605 12.75862122 C-20.4709473 8.42212616 -19.79758205 5.68999786 -17.125 2.25 C-11.79717802 -0.52247162 -5.86187412 -0.04621714 0 0 Z " fill="#0F2939" transform="translate(239.125,202.75)"/>
<path d="M0 0 C4.93633327 2.61382893 9.82256634 5.6841739 13.75 9.6875 C13.75 10.6775 13.75 11.6675 13.75 12.6875 C14.41 12.6875 15.07 12.6875 15.75 12.6875 C22.19099468 22.99309149 23.21710011 33.84541945 20.75 45.6875 C20.09 46.6775 19.43 47.6675 18.75 48.6875 C18.09 48.6875 17.43 48.6875 16.75 48.6875 C16.4921875 49.25984375 16.234375 49.8321875 15.96875 50.421875 C14.63634058 52.89878995 13.09943882 54.8216166 11.25 56.9375 C10.33734375 57.99710938 10.33734375 57.99710938 9.40625 59.078125 C7.75 60.6875 7.75 60.6875 5.75 60.6875 C5.255 62.1725 5.255 62.1725 4.75 63.6875 C-0.14554349 67.45330268 -5.62452872 70.17500019 -11.25 72.6875 C-12.1265625 73.09742188 -13.003125 73.50734375 -13.90625 73.9296875 C-25.23440103 78.34523024 -37.36968002 76.57071257 -49.25 75.6875 C-49.25 75.3575 -49.25 75.0275 -49.25 74.6875 C-48.601521 74.68339111 -47.95304199 74.67928223 -47.28491211 74.67504883 C-34.07475066 74.52885404 -22.48267339 74.09192266 -10.25 68.6875 C-9.33347656 68.30464844 -8.41695312 67.92179687 -7.47265625 67.52734375 C-1.06060595 64.61277543 4.68097855 60.58243384 9.75 55.6875 C10.08 54.6975 10.41 53.7075 10.75 52.6875 C11.6471875 51.883125 11.6471875 51.883125 12.5625 51.0625 C18.20503696 44.93631702 19.44342797 38.15683473 19.22265625 29.98828125 C18.5760073 25.47242701 16.95886141 21.84486762 14.84375 17.83203125 C13.75 15.6875 13.75 15.6875 13.75 13.6875 C13.09 13.6875 12.43 13.6875 11.75 13.6875 C9.125 11.3125 9.125 11.3125 6.75 8.6875 C6.75 8.0275 6.75 7.3675 6.75 6.6875 C5.9146875 6.2853125 5.9146875 6.2853125 5.0625 5.875 C2.75 4.6875 2.75 4.6875 0.5078125 3.24609375 C-2.50716169 1.54216358 -5.37232292 0.55431976 -8.6875 -0.4375 C-9.77933594 -0.77007812 -10.87117188 -1.10265625 -11.99609375 -1.4453125 C-15.07374238 -2.26552618 -18.10117125 -2.84706227 -21.25 -3.3125 C-21.25 -3.9725 -21.25 -4.6325 -21.25 -5.3125 C-14.65805873 -7.50981376 -6.06278627 -2.86483307 0 0 Z " fill="#082133" transform="translate(258.25,225.3125)"/>
<path d="M0 0 C2.44801496 0.97920598 3.74781064 1.57968441 5.125 3.875 C5.41375 4.57625 5.7025 5.2775 6 6 C7.33822127 8.95507678 7.33822127 8.95507678 9.5 11.3125 C15.79613669 18.39565378 14.25767022 32.19957106 14 41 C13.76401288 44.02714507 13.41508287 46.99064918 13 50 C12.34 50 11.68 50 11 50 C11.33 50.99 11.66 51.98 12 53 C10.625 56.0625 10.625 56.0625 9 59 C8.505 59.99 8.505 59.99 8 61 C7.34 61 6.68 61 6 61 C6 61.66 6 62.32 6 63 C5.34 63 4.68 63 4 63 C3.91234375 63.75152344 3.8246875 64.50304687 3.734375 65.27734375 C2.85888504 68.52317622 1.83154087 69.4710637 -0.75 71.5625 C-1.82894531 72.45195312 -1.82894531 72.45195312 -2.9296875 73.359375 C-3.61289062 73.90078125 -4.29609375 74.4421875 -5 75 C-5.94875 75.763125 -6.8975 76.52625 -7.875 77.3125 C-8.57625 77.869375 -9.2775 78.42625 -10 79 C-10.66 79.66 -11.32 80.32 -12 81 C-13.5159375 81.495 -13.5159375 81.495 -15.0625 82 C-18.12150806 82.65752556 -18.12150806 82.65752556 -19 85 C-20.485 85.495 -20.485 85.495 -22 86 C-22.99 86.99 -22.99 86.99 -24 88 C-26.49420439 88.91816469 -28.9679622 89.76502641 -31.5 90.5625 C-36.34470702 92.03971749 -36.34470702 92.03971749 -41 94 C-41.99 93.67 -42.98 93.34 -44 93 C-44 92.34 -44 91.68 -44 91 C-42.88882813 90.70867187 -41.77765625 90.41734375 -40.6328125 90.1171875 C-32.70209929 87.95864262 -25.65939427 85.81780365 -18.78515625 81.13671875 C-17 80 -17 80 -15 80 C-15 79.34 -15 78.68 -15 78 C-13.42578125 76.88671875 -13.42578125 76.88671875 -11.3125 75.6875 C-7.67589067 73.50938946 -4.88646845 71.13388003 -2 68 C-1.4225 67.46375 -0.845 66.9275 -0.25 66.375 C1.25659086 64.90383382 1.25659086 64.90383382 2 62 C2.66 62 3.32 62 4 62 C4.0825 61.484375 4.165 60.96875 4.25 60.4375 C5 58 5 58 6.9375 54.9375 C11.99130552 46.28170945 12.47603073 33.69613942 10.359375 24.09375 C9.64073998 21.69829995 8.83732377 19.35578656 8 17 C7.84144531 16.3090625 7.68289063 15.618125 7.51953125 14.90625 C6.69009385 11.86290076 4.78559268 9.57335415 3 7 C0 2.28571429 0 2.28571429 0 0 Z " fill="#031B2C" transform="translate(284,224)"/>
<path d="M0 0 C0.66 0 1.32 0 2 0 C2.226875 1.093125 2.45375 2.18625 2.6875 3.3125 C3.64038815 7.03175715 3.64038815 7.03175715 6.17529297 8.70068359 C9.4825574 10.22196806 11.87541264 10.41272693 15.5078125 10.4765625 C16.74144531 10.5075 17.97507813 10.5384375 19.24609375 10.5703125 C21.16615234 10.59738281 21.16615234 10.59738281 23.125 10.625 C25.66934866 10.67593791 28.21362899 10.73045304 30.7578125 10.7890625 C31.8833252 10.80662598 33.00883789 10.82418945 34.16845703 10.84228516 C37 11 37 11 40 12 C40.98141888 16.07290796 41.10060899 19.83852619 41.0534668 24.02172852 C41.04387436 25.05194122 41.04387436 25.05194122 41.03408813 26.10296631 C41.0113999 28.36171484 40.98075751 30.62026511 40.94921875 32.87890625 C40.9299744 34.45401283 40.91091898 36.02912173 40.89204407 37.60423279 C40.85113255 40.90019792 40.80591788 44.19607216 40.75805664 47.49194336 C40.69737587 51.7141441 40.65050041 55.93637361 40.60722637 60.15878391 C40.57186371 63.40937993 40.52762884 66.65981083 40.48087502 69.91026115 C40.45984591 71.46713332 40.44193875 73.02405093 40.4272213 74.58099556 C40.4056335 76.75679837 40.37172072 78.93207819 40.3347168 81.10766602 C40.31020699 82.96368187 40.31020699 82.96368187 40.28520203 84.85719299 C40 88 40 88 38 92 C38 65.93 38 39.86 38 13 C28.43 13 18.86 13 9 13 C2 9 2 9 0.5625 7.0625 C-0.09971886 4.63436419 -0.13918539 2.50533707 0 0 Z " fill="#092537" transform="translate(149,220)"/>
<path d="M0 0 C3.06524426 1.59304809 5.45763013 3.68101827 8 6 C8.59554688 6.47953125 9.19109375 6.9590625 9.8046875 7.453125 C12.92054186 9.97350497 15.60472935 12.62435897 18.1875 15.6875 C22.49380289 20.74189114 27.42290385 25.07867108 32.35009766 29.50732422 C35.19591548 32.08195135 38.0008629 34.70067674 40.8125 37.3125 C44.2456982 40.50086804 47.7038472 43.63476552 51.3125 46.625 C52.199375 47.40875 53.08625 48.1925 54 49 C54 49.66 54 50.32 54 51 C54.598125 51.226875 55.19625 51.45375 55.8125 51.6875 C58.56351888 53.33811133 59.52484637 55.1972081 61 58 C57.33051746 56.58866056 55.10538434 54.23913458 52.46484375 51.4375 C50.85570832 49.76884422 50.85570832 49.76884422 48 48 C45.3125 45.5 45.3125 45.5 43 43 C43 42.34 43 41.68 43 41 C42.360625 40.71125 41.72125 40.4225 41.0625 40.125 C39 39 39 39 38 37 C37.4225 36.7525 36.845 36.505 36.25 36.25 C34 35 34 35 32 32.4375 C29.46273603 29.19894258 26.4519735 27.02689234 23.125 24.625 C18.57847629 21.32249443 14.98467067 18.00886853 11.46875 13.6484375 C9.93702002 11.76284392 9.93702002 11.76284392 7.0625 10.25 C6.381875 9.8375 5.70125 9.425 5 9 C5 7.68 5 6.36 5 5 C4.38125 4.855625 3.7625 4.71125 3.125 4.5625 C1 4 1 4 -1 3 C-6.99711135 2.43911908 -11.87348302 2.54258157 -17 6 C-19.81356892 8.56197123 -19.81356892 8.56197123 -22 11 C-22 8 -22 8 -20.1875 5.8125 C-18 4 -18 4 -15 4 C-15 3.34 -15 2.68 -15 2 C-10.23184216 -0.54301751 -5.2607113 -0.91700472 0 0 Z " fill="#092434" transform="translate(250,140)"/>
<path d="M0 0 C16.50370775 -0.26859561 16.50370775 -0.26859561 20.875 3.4375 C24.26198879 7.52181001 24.12248083 9.73631056 24.11352539 15.02001953 C24.11367142 15.74207581 24.11381744 16.46413208 24.1139679 17.20806885 C24.11327007 19.59968041 24.10548375 21.99121451 24.09765625 24.3828125 C24.09579161 26.03905189 24.09436792 27.69529184 24.09336853 29.35153198 C24.08954699 33.71467608 24.07971978 38.077787 24.06866455 42.44091797 C24.05844264 46.89159699 24.05386924 51.34228137 24.04882812 55.79296875 C24.0380972 64.52866108 24.02102512 73.26432641 24 82 C23.67 82 23.34 82 23 82 C22.01245859 74.70188906 21.81270551 67.49318738 21.73963928 60.13295555 C21.71833402 58.00135011 21.6913447 55.86987985 21.66296387 53.73835754 C21.59369334 48.45283942 21.53367767 43.16722488 21.47393799 37.8815918 C21.42292815 33.39462892 21.36812427 28.90774464 21.30812073 24.42089272 C21.28165226 22.32482388 21.2607866 20.22874694 21.2401123 18.13261414 C21.22339478 16.86061661 21.20667725 15.58861908 21.18945312 14.27807617 C21.17692505 13.15938644 21.16439697 12.04069672 21.15148926 10.8881073 C21.02207651 8.4208835 20.71446976 6.35291294 20 4 C18.21142578 4.06960937 18.21142578 4.06960937 16.38671875 4.140625 C14.82033753 4.17814311 13.25392924 4.21454323 11.6875 4.25 C10.90181641 4.28351563 10.11613281 4.31703125 9.30664062 4.3515625 C7.13339453 4.38855392 5.14030099 4.38367634 3 4 C0.95703125 1.984375 0.95703125 1.984375 0 0 Z " fill="#041D2F" transform="translate(182,215)"/>
<path d="M0 0 C2.3125 -0.25 2.3125 -0.25 5 0 C6.97610386 2.04424538 8 3.1176825 8 6 C7.34 6 6.68 6 6 6 C4.375 4 4.375 4 3 2 C1.51726301 3.12029017 0.03891114 4.24638618 -1.4375 5.375 C-2.26121094 6.00148437 -3.08492187 6.62796875 -3.93359375 7.2734375 C-6.08528092 8.83753904 -6.08528092 8.83753904 -7 11 C-7.5775 11.268125 -8.155 11.53625 -8.75 11.8125 C-11.74700245 13.39425129 -13.62817466 15.57426954 -16 18 C-19.49704164 21.17008246 -23.05600723 24.24909666 -26.75 27.1875 C-29.01513684 28.94598539 -29.01513684 28.94598539 -30.9375 30.9375 C-32.9746548 32.9746548 -35.12303744 34.80834248 -37.34765625 36.63671875 C-39.16433392 38.13558519 -40.95944945 39.65752853 -42.75 41.1875 C-43.32234375 41.67605469 -43.8946875 42.16460937 -44.484375 42.66796875 C-45.69714991 43.73383536 -46.85831383 44.85831383 -48 46 C-49.27772414 47.01775429 -50.57113835 48.01595347 -51.875 49 C-52.55304688 49.515625 -53.23109375 50.03125 -53.9296875 50.5625 C-56 52 -56 52 -58.1796875 53.0546875 C-60.52399231 54.27211618 -61.03838189 55.59595473 -62 58 C-62.66 57.34 -63.32 56.68 -64 56 C-63.113125 55.278125 -62.22625 54.55625 -61.3125 53.8125 C-59.14191398 52.01650684 -57.23195339 50.21449778 -55.25 48.1875 C-53 46 -53 46 -51 46 C-51 45.34 -51 44.68 -51 44 C-48.80126681 42.1631982 -46.48799344 40.52626829 -44.1640625 38.8515625 C-41.96906416 36.97353143 -41.19805728 35.5664805 -40 33 C-39.2575 32.731875 -38.515 32.46375 -37.75 32.1875 C-34.27213358 30.68569405 -32.82698102 28.5855693 -30.484375 25.6875 C-28.58348468 23.52648785 -26.59319549 22.22456454 -24 21 C-23.34 21 -22.68 21 -22 21 C-22 20.34 -22 19.68 -22 19 C-16.52380952 14 -16.52380952 14 -14 14 C-14 13.34 -14 12.68 -14 12 C-12.609375 10.8515625 -12.609375 10.8515625 -10.75 9.625 C-8.46580801 8.06990364 -6.65848346 6.65848346 -4.6875 4.6875 C-4.130625 4.130625 -3.57375 3.57375 -3 3 C-2.34 3 -1.68 3 -1 3 C-0.67 2.01 -0.34 1.02 0 0 Z " fill="#051D2E" transform="translate(242,159)"/>
<path d="M0 0 C0.99 0.495 0.99 0.495 2 1 C-11.99743261 15.33247754 -11.99743261 15.33247754 -17 17 C-17.495 18.485 -17.495 18.485 -18 20 C-20.96854485 22.19414185 -23.49179941 23.8305998 -27 25 C-27.30292969 25.60972656 -27.60585937 26.21945313 -27.91796875 26.84765625 C-29.27550648 29.54802913 -30.8794393 30.66688608 -33.3125 32.4375 C-36.87563308 35.04481809 -39.88567184 37.87203245 -43 41 C-45.46626331 43.22681347 -47.98126055 45.39538656 -50.5 47.5625 C-51.47646484 48.40844727 -51.47646484 48.40844727 -52.47265625 49.27148438 C-55.92671391 52.25453417 -59.41190183 55.17782279 -63 58 C-63.66 57.67 -64.32 57.34 -65 57 C-61.3727586 53.27836942 -57.59230349 49.8538262 -53.625 46.5 C-49.66466311 43.13744981 -45.7179931 39.76330743 -41.8203125 36.328125 C-40.8001001 35.4319043 -40.8001001 35.4319043 -39.75927734 34.51757812 C-38.43592989 33.35341828 -37.11584843 32.18553367 -35.79931641 31.01367188 C-31.22299176 27 -31.22299176 27 -29 27 C-28.505 25.515 -28.505 25.515 -28 24 C-26.4089357 22.56197818 -24.7513985 21.19674665 -23.0625 19.875 C-18.32291507 16.09439724 -13.78643951 12.16676601 -9.3046875 8.0859375 C-6.25569294 5.32633903 -3.13659453 2.65928666 0 0 Z " fill="#061F2F" transform="translate(225,151)"/>
<path d="M0 0 C1.13199353 0.9080162 2.25532363 1.82683826 3.375 2.75 C4.00148438 3.26046875 4.62796875 3.7709375 5.2734375 4.296875 C7.12313117 6.12145971 7.92624435 7.65088559 9 10 C9.97009746 11.58890614 10.94992823 13.1718955 11.9375 14.75 C14.56121944 19.08456326 16.37599762 23.20919299 18 28 C18.33386719 28.78632813 18.66773438 29.57265625 19.01171875 30.3828125 C20.04488983 33.11887822 20.58546528 35.68024818 21.0625 38.5625 C21.6998217 42.39224157 21.6998217 42.39224157 22.5859375 46.16796875 C23.14465827 48.64004462 22.6074434 50.57022638 22 53 C21.34 52.67 20.68 52.34 20 52 C19.4375 49.41015625 19.4375 49.41015625 19 46.0625 C18.29787413 40.99716336 17.44638911 36.02097113 16.3671875 31.0234375 C16 29 16 29 16 26 C15.34 26 14.68 26 14 26 C13.773125 25.154375 13.54625 24.30875 13.3125 23.4375 C12.20872283 20.54665502 11.3091358 18.89617101 9.5 16.5 C7.22518562 13.48704527 5.98637267 10.67647996 5 7 C4.34 7 3.68 7 3 7 C0.70351351 4.4385343 0 3.52032428 0 0 Z " fill="#041B2A" transform="translate(311,198)"/>
<path d="M0 0 C3.29828392 5.58875886 2.61760255 12.22078853 1.25 18.375 C0.8375 19.57125 0.425 20.7675 0 22 C-0.69424639 24.20622173 -1.38109737 26.41477765 -2.0625 28.625 C-2.40410156 29.71039063 -2.74570312 30.79578125 -3.09765625 31.9140625 C-3.88405253 34.60346969 -4.50322479 37.2446901 -5 40 C-5.66 40 -6.32 40 -7 40 C-7.268125 40.721875 -7.53625 41.44375 -7.8125 42.1875 C-8.98982498 44.97590126 -10.39145884 47.44095724 -12 50 C-13 47 -13 47 -11.9609375 44.75 C-11.43757813 43.8425 -10.91421875 42.935 -10.375 42 C-3.63605919 29.02362095 -1.33332794 14.42780229 0 0 Z " fill="#071F30" transform="translate(332,252)"/>
<path d="M0 0 C0.66 0.309375 1.32 0.61875 2 0.9375 C8.33437091 3.18092303 14.80786176 3.12636542 21.4375 2.87890625 C22.20304199 2.85529526 22.96858398 2.83168427 23.75732422 2.80735779 C26.17177923 2.73156654 28.58584232 2.64718612 31 2.5625 C32.64972122 2.50919433 34.29946084 2.45645473 35.94921875 2.40429688 C39.96638795 2.27606797 43.98322948 2.14014207 48 2 C48 2.66 48 3.32 48 4 C44.14254068 5.20623325 40.24055133 5.27648731 36.234375 5.421875 C35.48214661 5.44977112 34.72991821 5.47766724 33.95489502 5.50640869 C32.36471373 5.56269356 30.77443656 5.61632401 29.18408203 5.66748047 C26.77165201 5.74926596 24.36077717 5.85299551 21.94921875 5.95703125 C20.39848291 6.00918074 18.84770179 6.06000403 17.296875 6.109375 C16.22925934 6.16070587 16.22925934 6.16070587 15.14007568 6.21307373 C9.78275966 6.34575441 5.89834678 5.19782307 1 3 C0.34 2.34 -0.32 1.68 -1 1 C-0.67 0.67 -0.34 0.34 0 0 Z " fill="#0B293C" transform="translate(190,314)"/>
<path d="M0 0 C0.98871094 -0.00773438 1.97742188 -0.01546875 2.99609375 -0.0234375 C3.94871094 -0.02085937 4.90132812 -0.01828125 5.8828125 -0.015625 C7.17662842 -0.01224121 7.17662842 -0.01224121 8.49658203 -0.00878906 C11.06156701 0.27029984 12.64876872 0.983238 14.875 2.25 C16.28427253 2.81062301 17.70101609 3.35287257 19.125 3.875 C20.3625 4.32875 21.6 4.7825 22.875 5.25 C22.215 5.91 21.555 6.57 20.875 7.25 C18.27204844 6.72212871 15.79944744 6.09635093 13.25 5.375 C4.88426538 3.21633209 -3.50124719 1.89881292 -12.125 3.25 C-15.34234857 5.34749796 -16.99021705 7.04782558 -19.125 10.25 C-19.125 4.97727273 -19.125 4.97727273 -17.125 2.25 C-11.56580959 -0.31158774 -5.99105525 -0.04723565 0 0 Z " fill="#051B2A" transform="translate(239.125,202.75)"/>
<path d="M0 0 C4.13721059 7.80500889 2.00349016 17.03713934 0.625 25.4375 C0.43611206 26.59113037 0.43611206 26.59113037 0.2434082 27.76806641 C-1.1610247 35.75364564 -1.1610247 35.75364564 -3 39 C-5.125 39.8125 -5.125 39.8125 -7 40 C-6.73445313 39.27039063 -6.46890625 38.54078125 -6.1953125 37.7890625 C-3.2078506 28.95751454 -2.0226618 20.46844939 -1.20556641 11.22070312 C-0.85876575 7.47426751 -0.4248071 3.73830251 0 0 Z " fill="#08263A" transform="translate(315,242)"/>
<path d="M0 0 C0.33 0 0.66 0 1 0 C1.13062223 9.5965865 1.26102657 19.19317592 1.39115143 28.78976917 C1.45157804 33.24567115 1.51208018 37.70157208 1.57275391 42.1574707 C1.63128583 46.456278 1.68962072 50.75508793 1.74781799 55.05389977 C1.77007505 56.69537133 1.79240354 58.33684193 1.81480408 59.97831154 C1.84612526 62.27435688 1.87719425 64.5704055 1.90820312 66.86645508 C1.92596802 68.17439529 1.94373291 69.48233551 1.96203613 70.82991028 C1.9866651 72.88649831 2 74.9432645 2 77 C1.01 76.67 0.02 76.34 -1 76 C-0.505 38.38 -0.505 38.38 0 0 Z " fill="#062D43" transform="translate(189,238)"/>
<path d="M0 0 C-1.15173355 2.46800047 -2.04783565 4.04783565 -4 6 C-5.5159375 6.495 -5.5159375 6.495 -7.0625 7 C-10.12150806 7.65752556 -10.12150806 7.65752556 -11 10 C-11.99 10.33 -12.98 10.66 -14 11 C-14.66 11.66 -15.32 12.32 -16 13 C-18.49420439 13.91816469 -20.9679622 14.76502641 -23.5 15.5625 C-28.34470702 17.03971749 -28.34470702 17.03971749 -33 19 C-33.99 18.67 -34.98 18.34 -36 18 C-36 17.34 -36 16.68 -36 16 C-34.88882813 15.70867187 -33.77765625 15.41734375 -32.6328125 15.1171875 C-24.70209929 12.95864262 -17.65939427 10.81780365 -10.78515625 6.13671875 C-9 5 -9 5 -7 5 C-7 4.34 -7 3.68 -7 3 C-2.61538462 0 -2.61538462 0 0 0 Z " fill="#062133" transform="translate(276,299)"/>
<path d="M0 0 C0.33 0 0.66 0 1 0 C1.33 3.96 1.66 7.92 2 12 C9.26 12.33 16.52 12.66 24 13 C20.7200492 16.2799508 16.47109634 15.55749446 12 15.75 C11.071875 15.80542969 10.14375 15.86085938 9.1875 15.91796875 C7.8571875 15.98177734 7.8571875 15.98177734 6.5 16.046875 C5.6853125 16.08651367 4.870625 16.12615234 4.03125 16.16699219 C2 16 2 16 0 14 C-1.5576815 9.3269555 -0.6753871 4.76927195 0 0 Z " fill="#072B42" transform="translate(204,288)"/>
<path d="M0 0 C3.78292333 2.0816086 6.57989206 4.38771345 9.5625 7.5 C11.72977644 9.75366701 13.74724979 11.81618167 16.27734375 13.65625 C16.84582031 14.0996875 17.41429687 14.543125 18 15 C18 15.66 18 16.32 18 17 C18.598125 17.226875 19.19625 17.45375 19.8125 17.6875 C22.56351888 19.33811133 23.52484637 21.1972081 25 24 C21.33051746 22.58866056 19.10538434 20.23913458 16.46484375 17.4375 C14.85570832 15.76884422 14.85570832 15.76884422 12 14 C9.3125 11.5 9.3125 11.5 7 9 C7 8.34 7 7.68 7 7 C6.401875 6.731875 5.80375 6.46375 5.1875 6.1875 C3.00152146 5.00082594 1.58667406 3.90400887 0 2 C0 1.34 0 0.68 0 0 Z " fill="#051B29" transform="translate(286,174)"/>
<path d="M0 0 C4.63655236 1.32472924 8.0542504 3.25513071 12 6 C12.680625 6.28875 13.36125 6.5775 14.0625 6.875 C17.09962881 8.63849415 18.84493304 11.24630333 21 14 C17.25 15.125 17.25 15.125 15 14 C14.57847656 13.22011719 14.15695312 12.44023437 13.72265625 11.63671875 C11.64958934 8.46365715 9.80652606 7.4857979 6.4375 5.8125 C1.15240642 3.15240642 1.15240642 3.15240642 -1 1 C-0.67 0.67 -0.34 0.34 0 0 Z " fill="#072130" transform="translate(263,209)"/>
<path d="M0 0 C0 0.66 0 1.32 0 2 C-16.41379885 7.36743203 -16.41379885 7.36743203 -25 6 C-25.66 5.34 -26.32 4.68 -27 4 C-25.80375 4.0825 -24.6075 4.165 -23.375 4.25 C-17.64251451 4.2864546 -12.5608729 2.59354389 -7.13671875 0.875 C-4 0 -4 0 0 0 Z " fill="#072537" transform="translate(273,336)"/>
<path d="M0 0 C14.52 0 29.04 0 44 0 C44 0.33 44 0.66 44 1 C29.48 1 14.96 1 0 1 C0 0.67 0 0.34 0 0 Z " fill="#000000" transform="translate(198,344)"/>
<path d="M0 0 C0.66 0 1.32 0 2 0 C1.48256463 4.03054923 -0.43129462 5.65263855 -3.4375 8.25 C-4.24058594 8.95640625 -5.04367188 9.6628125 -5.87109375 10.390625 C-8 12 -8 12 -10 12 C-10 12.66 -10 13.32 -10 14 C-10.99 13.67 -11.98 13.34 -13 13 C-12.0919838 11.86800647 -11.17316174 10.74467637 -10.25 9.625 C-9.48429688 8.68527344 -9.48429688 8.68527344 -8.703125 7.7265625 C-6.90823893 5.90697616 -5.2859556 5.09123806 -3 4 C-1.98758315 2.67607028 -0.98560611 1.34400833 0 0 Z " fill="#082E44" transform="translate(233,145)"/>
<path d="M0 0 C0.66 0.33 1.32 0.66 2 1 C0.47793991 3.62901288 -0.84365964 5.84365964 -3 8 C-3.495 8.845625 -3.99 9.69125 -4.5 10.5625 C-6 13 -6 13 -8 14 C-8.66 14.99 -9.32 15.98 -10 17 C-9.43398995 13.10695527 -8.3202 10.50457513 -6.125 7.25 C-5.61195313 6.47140625 -5.09890625 5.6928125 -4.5703125 4.890625 C-3 3 -3 3 0 2 C0 1.34 0 0.68 0 0 Z " fill="#021929" transform="translate(174,352)"/>
<path d="M0 0 C2.44801496 0.97920598 3.74781064 1.57968441 5.125 3.875 C5.41375 4.57625 5.7025 5.2775 6 6 C7.31567944 8.89449478 8.64033613 10.85485103 11 13 C10.67 13.66 10.34 14.32 10 15 C6.59176204 12.76701651 4.94670547 10.55485348 3 7 C2.443125 6.113125 1.88625 5.22625 1.3125 4.3125 C0 2 0 2 0 0 Z " fill="#001225" transform="translate(284,224)"/>
<path d="M0 0 C0.33 0.66 0.66 1.32 1 2 C3.64 1.34 6.28 0.68 9 0 C8.67 1.65 8.34 3.3 8 5 C5.69 4.67 3.38 4.34 1 4 C0.67 2.68 0.34 1.36 0 0 Z " fill="#0A2A3C" transform="translate(155,364)"/>
<path d="M0 0 C0.66 0 1.32 0 2 0 C2.226875 1.0725 2.45375 2.145 2.6875 3.25 C4.13026545 7.37218701 5.41910075 8.64414523 9 11 C8.01 11.495 8.01 11.495 7 12 C4.27507985 10.70566293 2.43010203 9.61443146 0.6875 7.125 C-0.11268687 4.65169514 -0.14354627 2.58383294 0 0 Z " fill="#08202F" transform="translate(149,220)"/>
<path d="M0 0 C0 0.66 0 1.32 0 2 C-4.00952575 3.33650858 -7.82016197 3.20225023 -12 3 C-12.66 2.34 -13.32 1.68 -14 1 C-4.58997722 -0.14806378 -4.58997722 -0.14806378 0 0 Z " fill="#031C2B" transform="translate(238,316)"/>
<path d="M0 0 C0.66 0.33 1.32 0.66 2 1 C2.05395478 2.62463842 2.09277195 4.24978541 2.125 5.875 C2.14820313 6.77992188 2.17140625 7.68484375 2.1953125 8.6171875 C2 11 2 11 0 13 C-1.06671952 9.79984144 -0.94845472 8.11455706 -0.5625 4.8125 C-0.46066406 3.91144531 -0.35882813 3.01039063 -0.25390625 2.08203125 C-0.17011719 1.39496094 -0.08632813 0.70789063 0 0 Z " fill="#072334" transform="translate(296,254)"/>
<path d="M0 0 C0.66 0.33 1.32 0.66 2 1 C-0.97 3.64 -3.94 6.28 -7 9 C-7.66 8.67 -8.32 8.34 -9 8 C-6.14723863 5.06799526 -3.34920216 2.35684596 0 0 Z " fill="#031525" transform="translate(169,200)"/>
<path d="M0 0 C-0.928125 0.5775 -1.85625 1.155 -2.8125 1.75 C-5.59815842 3.71634712 -7.18738696 5.18037972 -9 8 C-9 4.26414791 -8.95542188 2.98459129 -7 0 C-3.86650268 -1.04449911 -3.01031744 -0.93423645 0 0 Z " fill="#071F2D" transform="translate(229,205)"/>
<path d="M0 0 C3.63 1.32 7.26 2.64 11 4 C10.34 4.66 9.68 5.32 9 6 C7.70590408 5.54857119 6.41478941 5.08858979 5.125 4.625 C4.40570313 4.36976563 3.68640625 4.11453125 2.9453125 3.8515625 C1 3 1 3 -1 1 C-0.67 0.67 -0.34 0.34 0 0 Z " fill="#061D2D" transform="translate(190,314)"/>
<path d="M0 0 C0.66 0.33 1.32 0.66 2 1 C1.01 1.66 0.02 2.32 -1 3 C-0.67 2.01 -0.34 1.02 0 0 Z M-3 3 C-2.34 3 -1.68 3 -1 3 C-1.75 4.9375 -1.75 4.9375 -3 7 C-5.125 7.75 -5.125 7.75 -7 8 C-5.71937515 6.2925002 -4.38232443 4.62626404 -3 3 Z M-9 8 C-8.01 8.495 -8.01 8.495 -7 9 C-7.99 9.495 -7.99 9.495 -9 10 C-9 9.34 -9 8.68 -9 8 Z " fill="#082F47" transform="translate(217,160)"/>
<path d="M0 0 C0.66 0.33 1.32 0.66 2 1 C-2.625 6.875 -2.625 6.875 -6 8 C-5.75 5.625 -5.75 5.625 -5 3 C-3 1.75 -3 1.75 -1 1 C-0.67 0.67 -0.34 0.34 0 0 Z " fill="#0B2F45" transform="translate(168,336)"/>
<path d="M0 0 C0.66 0 1.32 0 2 0 C1.67 0.99 1.34 1.98 1 3 C0.01 3.33 -0.98 3.66 -2 4 C-3.70586575 5.62652316 -5.3777546 7.29006566 -7 9 C-7 6 -7 6 -5.1875 3.8125 C-3 2 -3 2 0 2 C0 1.34 0 0.68 0 0 Z " fill="#021824" transform="translate(235,142)"/>
<path d="M0 0 C1.9375 0.625 1.9375 0.625 4 2 C4.75 5.125 4.75 5.125 5 8 C2.21611025 6.29374499 1.14615794 5.52373261 0.25 2.3125 C0.1675 1.549375 0.085 0.78625 0 0 Z " fill="#051B2A" transform="translate(284,224)"/>
<path d="M0 0 C0.66 0 1.32 0 2 0 C1.67 2.64 1.34 5.28 1 8 C0.34 8 -0.32 8 -1 8 C-0.67 5.36 -0.34 2.72 0 0 Z " fill="#041729" transform="translate(330,269)"/>
<path d="M0 0 C4 1 4 1 4 1 Z " fill="#000000" transform="translate(220,288)"/>
<path d="" fill="#000000" transform="translate(0,0)"/>
<path d="M0 0 C2 1 2 1 2 1 Z " fill="#000000" transform="translate(235,319)"/>
<path d="M0 0 C2 1 2 1 2 1 Z " fill="#000000" transform="translate(239,318)"/>
<path d="" fill="#000000" transform="translate(0,0)"/>
<path d="" fill="#000000" transform="translate(0,0)"/>
<path d="" fill="#000000" transform="translate(0,0)"/>
<path d="" fill="#000000" transform="translate(0,0)"/>
<path d="" fill="#000000" transform="translate(0,0)"/>
<path d="" fill="#000000" transform="translate(0,0)"/>
<path d="" fill="#000000" transform="translate(0,0)"/>
<path d="" fill="#000000" transform="translate(0,0)"/>
<path d="" fill="#000000" transform="translate(0,0)"/>
<path d="" fill="#000000" transform="translate(0,0)"/>
<path d="" fill="#000000" transform="translate(0,0)"/>
<path d="" fill="#000000" transform="translate(0,0)"/>
</svg>
