<?xml version="1.0" encoding="UTF-8"?>
<svg width="18" height="18" viewBox="0 0 18 18" xmlns="http://www.w3.org/2000/svg">
    <path d="M17.751 2.966a7.017 7.017 0 0 1-2.023.554A3.525 3.525 0 0 0 17.282 1.5a7.033 7.033 0 0 1-2.237.854 3.525 3.525 0 0 0-6.101 2.411c0 .276.031.545.092.803A10.004 10.004 0 0 1 1.787 1.809a3.527 3.527 0 0 0 1.09 4.708 3.506 3.506 0 0 1-1.596-.441v.044a3.526 3.526 0 0 0 2.827 3.456 3.53 3.53 0 0 1-1.591.06 3.527 3.527 0 0 0 3.293 2.447A7.073 7.073 0 0 1 1 13.658a9.98 9.98 0 0 0 5.403 1.584c6.483 0 10.027-5.371 10.027-10.027 0-.153-.003-.305-.01-.456A7.16 7.16 0 0 0 18 2.966h-.249z" fill="#1DA1F2"/>
</svg>